# xmcd CD database file
#
# Track frame offsets:
#	150
#	13478
#	28055
#	43003
#	56308
#	68493
#	81117
#	94848
#	106521
#	119411
#	132727
#	147452
#	176724
#	190321
#	203102
#
# Disc length: 2885 seconds
#
# Revision: 0
# Processed by: cddbd v1.5.2PL0 Copyright (c) Steve Scherf et al.
# Submitted via: CDex 1.51
#
DISCID=d70b430f
DTITLE=Various Artist - Classic Jazz - the Ultimate Collection [CD2)
DYEAR=2007
DGENRE=Jazz
TTITLE0=Dizzy Gillespie Sextet - Blues 'n' Boogie
TTITLE1=Dizzy Gillespie All Star Quintet - Salt Peanuts
TTITLE2=Sarah Vaughan With That Dizzy Gillespie All Star Quintet - Lover Man
TTITLE3=Charlie Parker's Re-Boppers - Ko-Ko
TTITLE4=Charlie Parker's Re-Boppers - Yardbird Suite
TTITLE5=Bud Powell and the Bebop Boys - Blues in Biebop
TTITLE6=Charlie Parker Septet - A Night in Tunisia
TTITLE7=Stan Getz Quartet - Opus De Bop
TTITLE8=Dizzy Gillespie and His Orchestra - Things to Come
TTITLE9=Lester Young and His Band - Lester Leaps In
TTITLE10=Ella Fitzgerald with Bob Haggart and His Orchestra - Lady Be Good
TTITLE11=Dexter Gordon - The Chase
TTITLE12=Art Blakey's Jazz Messengers - The Thin Man
TTITLE13=Fats Navarro All Stars - Fats Blows
TTITLE14=Dizzy Gillespie and His Orchetra - Algo Bueno (Woody 'n' You)
EXTD=YEAR: 2007
EXTT0=
EXTT1=
EXTT2=
EXTT3=
EXTT4=
EXTT5=
EXTT6=
EXTT7=
EXTT8=
EXTT9=
EXTT10=
EXTT11=
EXTT12=
EXTT13=
EXTT14=
PLAYORDER=
